# xmcd
#
# Track frame offsets: 
#        150
#        19200
#        36065
#        51727
#        72402
#        85687
#        106937
#        120257
#        133730
#        148250
#
# Disc length: 2179 seconds
#
# Revision: 4
# Processed by: cddbd v1.5.2PL0 Copyright (c) Steve Scherf et al.
# Submitted via: ExactAudioCopy v0.99pb4
#
DISCID=8e08810a
DTITLE=Roy Rogers - Slidewinder
DYEAR=1988
DGENRE=Blues
TTITLE0=Cover Up
TTITLE1=I Wish You Luck
TTITLE2=Comin' On Too Strong
TTITLE3=Walkin' Blues
TTITLE4=Terraplane Blues
TTITLE5=Gazing Out My Window
TTITLE6=Tip-Walk
TTITLE7=Red Hot
TTITLE8=Pretty Girls Everywhere
TTITLE9=Down In Mississippi
EXTD=
EXTT0=
EXTT1=
EXTT2=
EXTT3=Robert Johnson Cover
EXTT4=Robert Johnson Cover
EXTT5=
EXTT6=
EXTT7=
EXTT8=
EXTT9=
PLAYORDER=
